<svg width="1280" height="720" viewBox="0 0 1280 720" fill="none" xmlns="http://www.w3.org/2000/svg">
<rect width="1280" height="720" fill="#F6CE1F"/>
<g filter="url(#filter0_d)">
<rect x="640" y="229" width="425" height="131" rx="8" fill="#F6CE1F"/>
</g>
<rect x="657" y="197" width="425" height="131" rx="8" fill="white"/>
<rect x="123" y="113" width="349" height="310" rx="8" fill="white"/>
<g filter="url(#filter1_d)">
<rect x="97" y="83" width="349" height="310" rx="8" fill="#F6CE1F"/>
</g>
<path d="M179.448 322.13C163.65 322.13 151.49 318.757 142.97 312.012C134.627 305.089 129.124 293.995 126.461 278.729L157.881 274.202C159.123 282.013 161.52 287.782 165.07 291.51C168.62 295.237 173.502 297.101 179.714 297.101C186.105 297.101 190.898 295.06 194.093 290.977C197.465 286.717 199.152 280.593 199.152 272.605V192.992H168.798V167.963H230.837V271.806C230.837 287.604 226.311 299.941 217.258 308.817C208.205 317.692 195.602 322.13 179.448 322.13ZM384.526 276.066C384.526 290.977 379.023 302.427 368.017 310.414C357.012 318.225 340.77 322.13 319.291 322.13C299.765 322.13 284.499 318.669 273.493 311.746C262.488 304.823 255.387 294.35 252.192 280.327L282.813 275.267C284.943 283.255 289.025 289.113 295.061 292.841C301.096 296.569 309.528 298.433 320.356 298.433C342.545 298.433 353.639 291.598 353.639 277.93C353.639 273.67 352.308 270.12 349.645 267.28C347.16 264.439 343.61 262.132 338.995 260.357C334.379 258.404 325.504 256.096 312.368 253.434C301.007 250.771 293.019 248.641 288.404 247.043C283.966 245.446 279.972 243.582 276.422 241.452C272.872 239.144 269.766 236.482 267.103 233.464C264.618 230.446 262.665 226.896 261.245 222.813C260.003 218.553 259.381 213.671 259.381 208.169C259.381 194.5 264.529 184.027 274.825 176.749C285.12 169.294 300.12 165.566 319.823 165.566C338.64 165.566 352.752 168.584 362.16 174.619C371.745 180.477 377.869 190.24 380.532 203.908L349.645 207.902C348.048 201.335 344.852 196.453 340.06 193.258C335.267 189.885 328.344 188.199 319.291 188.199C299.942 188.199 290.268 194.234 290.268 206.305C290.268 210.21 291.244 213.494 293.197 216.157C295.327 218.642 298.345 220.772 302.25 222.547C306.333 224.322 314.587 226.541 327.013 229.204C341.568 232.221 351.953 235.061 358.166 237.724C364.556 240.387 369.526 243.493 373.076 247.043C376.804 250.416 379.644 254.499 381.597 259.292C383.55 264.084 384.526 269.676 384.526 276.066Z" fill="white"/>
<path d="M434.205 546V526.813H414.705V546H405.386V501.283H414.705V519.06H434.205V501.283H443.524V546H434.205ZM452.451 505.434V498.934H461.379V505.434H452.451ZM452.451 546V511.62H461.379V546H452.451ZM484.888 559.783C480.712 559.783 477.344 558.974 474.786 557.355C472.228 555.789 470.635 553.518 470.009 550.542L478.937 549.524C479.25 550.882 479.928 551.952 480.973 552.735C482.017 553.518 483.4 553.91 485.123 553.91C487.577 553.91 489.378 553.153 490.527 551.639C491.675 550.124 492.25 547.853 492.25 544.825V543.024L492.328 539.657H492.25C490.266 543.886 486.585 545.974 481.208 545.922C477.188 545.922 474.081 544.434 471.888 541.458C469.696 538.43 468.599 534.122 468.599 528.536C468.599 522.95 469.722 518.643 471.967 515.614C474.264 512.534 477.553 510.994 481.834 510.994C486.846 510.994 490.318 513.056 492.25 517.181H492.406C492.406 516.45 492.459 515.458 492.563 514.205C492.667 512.9 492.772 512.038 492.876 511.62H501.256C501.151 513.918 501.099 516.58 501.099 519.608V544.982C501.099 549.89 499.716 553.57 496.949 556.024C494.182 558.53 490.161 559.783 484.888 559.783ZM492.328 528.38C492.328 524.829 491.702 522.062 490.449 520.078C489.196 518.094 487.394 517.102 485.045 517.102C480.294 517.102 477.918 520.914 477.918 528.536C477.918 536.002 480.268 539.735 484.967 539.735C487.316 539.735 489.117 538.769 490.37 536.837C491.675 534.853 492.328 532.034 492.328 528.38ZM518.859 518.512C520.06 515.902 521.574 513.996 523.401 512.795C525.229 511.594 527.395 510.994 529.901 510.994C533.556 510.994 536.349 512.116 538.281 514.361C540.265 516.606 541.257 519.896 541.257 524.229V546H532.329V526.735C532.329 520.679 530.293 517.677 526.221 517.729C524.08 517.729 522.331 518.669 520.974 520.548C519.668 522.376 519.016 524.725 519.016 527.596V546H510.088V498.934H519.016V511.777C519.016 514.074 518.937 516.319 518.781 518.512H518.859ZM563.716 546.627C558.547 546.627 554.579 545.112 551.812 542.084C549.045 539.004 547.661 534.54 547.661 528.693C547.661 523.002 549.071 518.643 551.89 515.614C554.709 512.534 558.703 510.994 563.872 510.994C568.78 510.994 572.539 512.639 575.149 515.928C577.76 519.217 579.065 523.994 579.065 530.259V530.572H557.059C557.059 533.914 557.659 536.446 558.86 538.169C560.113 539.839 561.888 540.675 564.185 540.675C567.318 540.675 569.302 539.317 570.137 536.602L578.595 537.307C576.141 543.52 571.181 546.627 563.716 546.627ZM563.716 516.633C561.627 516.633 560.009 517.363 558.86 518.825C557.764 520.287 557.189 522.323 557.137 524.934H570.45C570.294 522.167 569.615 520.104 568.414 518.747C567.266 517.337 565.699 516.633 563.716 516.633ZM585.816 546V519.687C585.816 517.807 585.79 516.241 585.737 514.988C585.685 513.735 585.633 512.612 585.581 511.62H594.038C594.091 511.986 594.169 513.161 594.273 515.145C594.43 517.076 594.508 518.355 594.508 518.982H594.587C595.474 516.58 596.257 514.884 596.936 513.892C597.615 512.9 598.398 512.169 599.285 511.699C600.225 511.229 601.4 510.994 602.81 510.994C603.958 510.994 604.872 511.151 605.551 511.464V518.904C604.089 518.59 602.836 518.434 601.792 518.434C599.547 518.434 597.798 519.347 596.545 521.175C595.344 522.95 594.743 525.612 594.743 529.163V546H585.816ZM671.589 523.446C671.589 528.092 670.649 532.191 668.769 535.741C666.942 539.239 664.306 541.928 660.86 543.807C657.466 545.687 653.472 546.627 648.878 546.627C641.83 546.627 636.322 544.564 632.354 540.44C628.386 536.315 626.402 530.651 626.402 523.446C626.402 516.293 628.386 510.707 632.354 506.687C636.322 502.614 641.856 500.578 648.956 500.578C656.057 500.578 661.591 502.614 665.559 506.687C669.579 510.759 671.589 516.345 671.589 523.446ZM662.034 523.446C662.034 518.643 660.886 514.857 658.589 512.09C656.291 509.323 653.081 507.94 648.956 507.94C644.779 507.94 641.542 509.323 639.245 512.09C636.948 514.805 635.799 518.59 635.799 523.446C635.799 528.353 636.974 532.217 639.324 535.036C641.673 537.855 644.858 539.265 648.878 539.265C653.055 539.265 656.291 537.908 658.589 535.193C660.886 532.426 662.034 528.51 662.034 523.446ZM678.809 546V519.687C678.809 517.807 678.783 516.241 678.73 514.988C678.678 513.735 678.626 512.612 678.574 511.62H687.032C687.084 511.986 687.162 513.161 687.267 515.145C687.423 517.076 687.502 518.355 687.502 518.982H687.58C688.467 516.58 689.251 514.884 689.929 513.892C690.608 512.9 691.391 512.169 692.279 511.699C693.218 511.229 694.393 510.994 695.803 510.994C696.951 510.994 697.865 511.151 698.544 511.464V518.904C697.082 518.59 695.829 518.434 694.785 518.434C692.54 518.434 690.791 519.347 689.538 521.175C688.337 522.95 687.736 525.612 687.736 529.163V546H678.809ZM726.313 546C726.209 545.687 726.105 544.904 726 543.651C725.896 542.345 725.844 541.275 725.844 540.44H725.687C723.755 544.564 720.101 546.627 714.723 546.627C710.703 546.627 707.597 545.086 705.404 542.006C703.263 538.873 702.193 534.488 702.193 528.849C702.193 523.159 703.342 518.773 705.639 515.693C707.936 512.56 711.199 510.994 715.428 510.994C717.882 510.994 719.97 511.516 721.693 512.56C723.468 513.552 724.825 515.066 725.765 517.102H725.844L725.765 511.464V498.934H734.693V538.482C734.693 540.622 734.771 543.129 734.928 546H726.313ZM725.922 528.614C725.922 524.908 725.295 522.062 724.042 520.078C722.789 518.094 720.962 517.102 718.56 517.102C716.159 517.102 714.384 518.068 713.235 520C712.086 521.932 711.512 524.882 711.512 528.849C711.512 536.629 713.835 540.518 718.482 540.518C720.831 540.518 722.659 539.5 723.964 537.464C725.269 535.376 725.922 532.426 725.922 528.614ZM757.7 546.627C752.531 546.627 748.563 545.112 745.796 542.084C743.029 539.004 741.646 534.54 741.646 528.693C741.646 523.002 743.055 518.643 745.875 515.614C748.694 512.534 752.688 510.994 757.857 510.994C762.764 510.994 766.523 512.639 769.134 515.928C771.744 519.217 773.049 523.994 773.049 530.259V530.572H751.043C751.043 533.914 751.644 536.446 752.844 538.169C754.097 539.839 755.873 540.675 758.17 540.675C761.302 540.675 763.286 539.317 764.122 536.602L772.579 537.307C770.126 543.52 765.166 546.627 757.7 546.627ZM757.7 516.633C755.612 516.633 753.993 517.363 752.844 518.825C751.748 520.287 751.174 522.323 751.122 524.934H764.435C764.278 522.167 763.599 520.104 762.399 518.747C761.25 517.337 759.684 516.633 757.7 516.633ZM779.8 546V519.687C779.8 517.807 779.774 516.241 779.722 514.988C779.669 513.735 779.617 512.612 779.565 511.62H788.023C788.075 511.986 788.153 513.161 788.258 515.145C788.414 517.076 788.493 518.355 788.493 518.982H788.571C789.459 516.58 790.242 514.884 790.92 513.892C791.599 512.9 792.382 512.169 793.27 511.699C794.21 511.229 795.384 510.994 796.794 510.994C797.943 510.994 798.856 511.151 799.535 511.464V518.904C798.073 518.59 796.82 518.434 795.776 518.434C793.531 518.434 791.782 519.347 790.529 521.175C789.328 522.95 788.728 525.612 788.728 529.163V546H779.8ZM831.428 508.488V522.349H854.296V529.554H831.428V546H822.109V501.283H855.079V508.488H831.428ZM870.255 511.62V530.886C870.255 536.942 872.291 539.97 876.363 539.97C878.504 539.97 880.227 539.056 881.532 537.229C882.889 535.349 883.568 532.974 883.568 530.102V511.62H892.496V538.325C892.496 541.249 892.574 543.807 892.731 546H884.273C884.012 542.972 883.881 540.701 883.881 539.187H883.725C882.524 541.797 881.01 543.703 879.182 544.904C877.355 546.052 875.188 546.627 872.682 546.627C869.028 546.627 866.209 545.53 864.225 543.337C862.293 541.092 861.327 537.803 861.327 533.47V511.62H870.255ZM923.726 546V526.735C923.726 520.679 921.689 517.651 917.617 517.651C915.477 517.651 913.728 518.59 912.37 520.47C911.065 522.297 910.412 524.673 910.412 527.596V546H901.485V519.373C901.485 517.546 901.458 516.032 901.406 514.831C901.354 513.631 901.302 512.56 901.25 511.62H909.707C909.76 512.038 909.838 513.135 909.942 514.91C910.099 516.633 910.177 517.833 910.177 518.512H910.256C911.456 515.902 912.97 513.996 914.798 512.795C916.625 511.594 918.792 510.994 921.298 510.994C924.952 510.994 927.746 512.116 929.677 514.361C931.661 516.606 932.653 519.896 932.653 524.229V546H923.726ZM955.425 546.627C950.204 546.627 946.158 545.086 943.287 542.006C940.467 538.873 939.058 534.54 939.058 529.006C939.058 523.315 940.494 518.904 943.365 515.771C946.236 512.586 950.283 510.994 955.504 510.994C959.524 510.994 962.865 512.012 965.528 514.048C968.19 516.084 969.861 518.904 970.54 522.506L961.534 522.898C961.273 521.122 960.646 519.739 959.654 518.747C958.662 517.703 957.226 517.181 955.347 517.181C950.753 517.181 948.455 521.018 948.455 528.693C948.455 536.629 950.805 540.57 955.504 540.518C957.174 540.518 958.584 539.996 959.732 538.952C960.881 537.855 961.586 536.263 961.847 534.175L970.775 534.566C970.461 536.916 969.626 539.03 968.269 540.91C966.911 542.737 965.11 544.147 962.865 545.139C960.672 546.131 958.192 546.627 955.425 546.627ZM985.983 546.548C983.373 546.548 981.363 545.843 979.953 544.434C978.543 543.024 977.839 540.857 977.839 537.934V517.651H973.453V511.62H978.23L981.049 503.633H986.61V511.62H993.11V517.651H986.61V535.506C986.61 537.177 986.923 538.43 987.549 539.265C988.228 540.048 989.22 540.44 990.525 540.44C991.204 540.44 992.196 540.283 993.501 539.97V545.53C991.308 546.209 988.802 546.548 985.983 546.548ZM998.858 505.434V498.934H1007.79V505.434H998.858ZM998.858 546V511.62H1007.79V546H998.858ZM1049.54 528.771C1049.54 534.357 1047.98 538.743 1044.84 541.928C1041.76 545.06 1037.51 546.627 1032.08 546.627C1026.7 546.627 1022.47 545.06 1019.39 541.928C1016.36 538.743 1014.85 534.357 1014.85 528.771C1014.85 523.237 1016.36 518.904 1019.39 515.771C1022.47 512.586 1026.75 510.994 1032.23 510.994C1037.82 510.994 1042.1 512.534 1045.08 515.614C1048.05 518.643 1049.54 523.028 1049.54 528.771ZM1040.14 528.771C1040.14 524.699 1039.47 521.749 1038.11 519.922C1036.8 518.094 1034.9 517.181 1032.39 517.181C1026.96 517.181 1024.25 521.044 1024.25 528.771C1024.25 532.582 1024.9 535.506 1026.2 537.542C1027.56 539.526 1029.47 540.518 1031.92 540.518C1037.4 540.518 1040.14 536.602 1040.14 528.771ZM1078.74 546V526.735C1078.74 520.679 1076.7 517.651 1072.63 517.651C1070.49 517.651 1068.74 518.59 1067.38 520.47C1066.07 522.297 1065.42 524.673 1065.42 527.596V546H1056.49V519.373C1056.49 517.546 1056.47 516.032 1056.42 514.831C1056.36 513.631 1056.31 512.56 1056.26 511.62H1064.72C1064.77 512.038 1064.85 513.135 1064.95 514.91C1065.11 516.633 1065.19 517.833 1065.19 518.512H1065.27C1066.47 515.902 1067.98 513.996 1069.81 512.795C1071.63 511.594 1073.8 510.994 1076.31 510.994C1079.96 510.994 1082.76 512.116 1084.69 514.361C1086.67 516.606 1087.66 519.896 1087.66 524.229V546H1078.74ZM1125.08 535.976C1125.08 539.317 1123.7 541.928 1120.93 543.807C1118.21 545.687 1114.46 546.627 1109.65 546.627C1104.95 546.627 1101.35 545.896 1098.84 544.434C1096.34 542.92 1094.67 540.596 1093.83 537.464L1101.66 536.289C1102.13 537.908 1102.92 539.056 1104.01 539.735C1105.11 540.414 1106.99 540.753 1109.65 540.753C1112.16 540.753 1113.99 540.44 1115.13 539.813C1116.28 539.135 1116.86 538.116 1116.86 536.759C1116.86 535.663 1116.39 534.801 1115.45 534.175C1114.56 533.548 1113.02 533 1110.83 532.53C1105.81 531.538 1102.42 530.624 1100.65 529.789C1098.87 528.902 1097.51 527.779 1096.57 526.422C1095.69 525.064 1095.24 523.394 1095.24 521.41C1095.24 518.12 1096.5 515.562 1099 513.735C1101.51 511.908 1105.08 510.994 1109.73 510.994C1113.8 510.994 1117.09 511.803 1119.6 513.422C1122.1 514.988 1123.64 517.259 1124.22 520.235L1116.39 521.096C1116.13 519.687 1115.5 518.643 1114.51 517.964C1113.52 517.285 1111.92 516.946 1109.73 516.946C1107.59 516.946 1106 517.207 1104.95 517.729C1103.91 518.251 1103.39 519.165 1103.39 520.47C1103.39 521.462 1103.78 522.245 1104.56 522.819C1105.4 523.394 1106.78 523.863 1108.71 524.229C1111.37 524.803 1113.75 525.378 1115.84 525.952C1117.98 526.526 1119.68 527.231 1120.93 528.066C1122.18 528.849 1123.17 529.867 1123.9 531.12C1124.69 532.373 1125.08 533.992 1125.08 535.976Z" fill="#393939"/>
<path d="M740.687 296.47C737.345 291.667 734.918 286.89 733.404 282.139C731.942 277.388 731.211 272.062 731.211 266.163C731.211 260.263 731.942 254.938 733.404 250.187C734.918 245.436 737.345 240.685 740.687 235.934H749.614C746.273 240.737 743.845 245.54 742.331 250.343C740.817 255.094 740.06 260.367 740.06 266.163C740.06 271.958 740.791 277.231 742.253 281.982C743.767 286.733 746.221 291.562 749.614 296.47H740.687ZM762.332 296.47C758.991 291.667 756.563 286.89 755.049 282.139C753.587 277.388 752.856 272.062 752.856 266.163C752.856 260.263 753.587 254.938 755.049 250.187C756.563 245.436 758.991 240.685 762.332 235.934H771.26C767.919 240.737 765.491 245.54 763.977 250.343C762.463 255.094 761.706 260.367 761.706 266.163C761.706 271.958 762.437 277.231 763.899 281.982C765.413 286.733 767.866 291.562 771.26 296.47H762.332ZM771.369 296.47C774.763 291.51 777.191 286.681 778.652 281.982C780.167 277.231 780.924 271.958 780.924 266.163C780.924 260.367 780.14 255.068 778.574 250.265C777.06 245.462 774.658 240.685 771.369 235.934H780.297C783.638 240.737 786.04 245.514 787.502 250.265C788.964 255.016 789.695 260.315 789.695 266.163C789.695 272.062 788.964 277.388 787.502 282.139C786.04 286.89 783.638 291.667 780.297 296.47H771.369ZM812.801 256.295V249.169H845.458V256.295H812.801ZM812.801 273.759V266.711H845.458V273.759H812.801ZM850.775 279.006V271.801L877.167 261.542L850.775 251.205V244L883.353 256.373V266.633L850.775 279.006ZM915.819 296.47C912.477 291.667 910.05 286.89 908.535 282.139C907.074 277.388 906.343 272.062 906.343 266.163C906.343 260.263 907.074 254.938 908.535 250.187C910.05 245.436 912.477 240.685 915.819 235.934H924.746C921.405 240.737 918.977 245.54 917.463 250.343C915.949 255.094 915.192 260.367 915.192 266.163C915.192 271.958 915.923 277.231 917.385 281.982C918.899 286.733 921.353 291.562 924.746 296.47H915.819ZM924.856 296.47C928.249 291.51 930.677 286.681 932.139 281.982C933.653 277.231 934.41 271.958 934.41 266.163C934.41 260.367 933.627 255.068 932.06 250.265C930.546 245.462 928.145 240.685 924.856 235.934H933.783C937.125 240.737 939.526 245.514 940.988 250.265C942.45 255.016 943.181 260.315 943.181 266.163C943.181 272.062 942.45 277.388 940.988 282.139C939.526 286.89 937.125 291.667 933.783 296.47H924.856ZM946.501 296.47C949.895 291.51 952.322 286.681 953.784 281.982C955.298 277.231 956.055 271.958 956.055 266.163C956.055 260.367 955.272 255.068 953.706 250.265C952.192 245.462 949.79 240.685 946.501 235.934H955.429C958.77 240.737 961.172 245.514 962.634 250.265C964.096 255.016 964.826 260.315 964.826 266.163C964.826 272.062 964.096 277.388 962.634 282.139C961.172 286.89 958.77 291.667 955.429 296.47H946.501ZM968.147 296.47C971.54 291.51 973.968 286.681 975.43 281.982C976.944 277.231 977.701 271.958 977.701 266.163C977.701 260.367 976.918 255.068 975.351 250.265C973.837 245.462 971.436 240.685 968.147 235.934H977.074C980.416 240.737 982.817 245.514 984.279 250.265C985.741 255.016 986.472 260.315 986.472 266.163C986.472 272.062 985.741 277.388 984.279 282.139C982.817 286.89 980.416 291.667 977.074 296.47H968.147ZM996.057 259.114V250.187H1005.14V259.114H996.057ZM1005.14 280.886C1005.14 283.444 1004.88 285.689 1004.36 287.62C1003.84 289.552 1002.97 291.353 1001.77 293.024H995.901C997.258 291.301 998.302 289.578 999.033 287.855C999.764 286.133 1000.13 284.514 1000.13 283H996.057V274.072H1005.14V280.886Z" fill="url(#paint0_linear)"/>
<defs>
<filter id="filter0_d" x="606" y="194" width="493" height="199" filterUnits="userSpaceOnUse" color-interpolation-filters="sRGB">
<feFlood flood-opacity="0" result="BackgroundImageFix"/>
<feColorMatrix in="SourceAlpha" type="matrix" values="0 0 0 0 0 0 0 0 0 0 0 0 0 0 0 0 0 0 127 0"/>
<feOffset dy="-1"/>
<feGaussianBlur stdDeviation="17"/>
<feColorMatrix type="matrix" values="0 0 0 0 0 0 0 0 0 0 0 0 0 0 0 0 0 0 0.15 0"/>
<feBlend mode="normal" in2="BackgroundImageFix" result="effect1_dropShadow"/>
<feBlend mode="normal" in="SourceGraphic" in2="effect1_dropShadow" result="shape"/>
</filter>
<filter id="filter1_d" x="74" y="60" width="391" height="352" filterUnits="userSpaceOnUse" color-interpolation-filters="sRGB">
<feFlood flood-opacity="0" result="BackgroundImageFix"/>
<feColorMatrix in="SourceAlpha" type="matrix" values="0 0 0 0 0 0 0 0 0 0 0 0 0 0 0 0 0 0 127 0"/>
<feOffset dx="-2" dy="-2"/>
<feGaussianBlur stdDeviation="10.5"/>
<feColorMatrix type="matrix" values="0 0 0 0 0 0 0 0 0 0 0 0 0 0 0 0 0 0 0.18 0"/>
<feBlend mode="normal" in2="BackgroundImageFix" result="effect1_dropShadow"/>
<feBlend mode="normal" in="SourceGraphic" in2="effect1_dropShadow" result="shape"/>
</filter>
<linearGradient id="paint0_linear" x1="728" y1="258" x2="1012" y2="258" gradientUnits="userSpaceOnUse">
<stop stop-color="#F6CE1F"/>
<stop offset="1" stop-color="#EA913F"/>
</linearGradient>
</defs>
</svg>
